<svg width="297" height="297" viewBox="0 0 297 297" fill="none" xmlns="http://www.w3.org/2000/svg">
<rect width="297" height="297" fill="#FFE5F1"/>
<path d="M152.5 268C209.264 268 256.38 226.694 265.431 172.5V170.5M152.5 39C207.859 39 254.042 78.2865 264.689 130.5V132.5" stroke="#570026" stroke-width="3"/>
<path d="M264.5 172C253.178 172 244 162.822 244 151.5C244 140.178 253.178 131 264.5 131" stroke="#570026" stroke-width="3"/>
<path d="M152.931 39C96.1672 39 49.0509 80.306 40.0001 134.5L40.0001 136.5M152.931 268C97.5721 268 51.3892 228.713 40.7417 176.5L40.7417 174.5" stroke="#570026" stroke-width="3"/>
<path d="M40.9309 135C52.2527 135 61.4309 144.178 61.4309 155.5C61.4309 166.822 52.2527 176 40.9309 176" stroke="#570026" stroke-width="3"/>
<circle cx="264.5" cy="153.5" r="3.5" fill="#570026"/>
<circle cx="39.5" cy="153.5" r="3.5" fill="#570026"/>
<path fill-rule="evenodd" clip-rule="evenodd" d="M148.583 95.2405C146.4 93.6557 143.354 93.7964 141.323 95.6603C141.262 95.7163 141.042 95.9358 140.993 95.9882C140.008 97.0507 139.457 98.4472 139.457 99.902C139.457 101.428 140.063 102.892 141.142 103.971C142.796 105.624 144.722 107.55 146.091 108.92C146.751 109.58 147.648 109.951 148.583 109.951C149.518 109.951 150.415 109.58 151.076 108.92C152.444 107.55 154.37 105.624 156.024 103.971C157.104 102.892 157.709 101.428 157.709 99.902C157.709 98.3756 157.104 96.9124 156.024 95.8332C153.997 93.806 150.832 93.608 148.583 95.2405ZM154.634 97.2249C153.155 95.7462 150.757 95.7462 149.278 97.2249C148.924 97.579 148.583 97.5122 148.583 97.5122C148.583 97.5122 148.242 97.579 147.888 97.2249C146.462 95.7986 144.18 95.7473 142.693 97.0722C142.639 97.1211 142.46 97.2988 142.424 97.3381C141.782 98.0346 141.423 98.9504 141.423 99.902C141.423 100.906 141.823 101.87 142.532 102.579L147.481 107.528C147.773 107.82 148.171 107.985 148.583 107.985C148.996 107.985 149.393 107.82 149.685 107.528L154.634 102.579C155.343 101.87 155.743 100.906 155.743 99.902C155.743 98.8979 155.343 97.9344 154.634 97.2249Z" fill="#570026"/>
<path fill-rule="evenodd" clip-rule="evenodd" d="M158.645 69.1639C149.138 64.7585 137.674 68.2474 132.309 77.4732C132.297 77.4929 132.254 77.5676 132.246 77.5853C132.175 77.7269 132.142 77.8764 132.142 78.0239C132.144 78.3621 132.319 78.6945 132.634 78.8754L170.697 100.851C171.167 101.123 171.769 100.961 172.04 100.491C177.392 91.2223 174.687 79.5127 166.103 73.469C167.464 73.0462 168.677 72.1297 169.446 70.8002C171.065 67.9957 170.103 64.4045 167.298 62.7859C164.494 61.1673 160.903 62.1291 159.284 64.9336C158.515 66.263 158.328 67.7715 158.645 69.1639ZM163.546 74.1672L159.318 71.7265C150.731 66.7685 139.828 69.455 134.49 77.6777L170.805 98.6427C175.258 89.9106 172.133 79.1252 163.546 74.1672ZM162.415 71.2427C160.551 70.1669 159.912 67.7794 160.987 65.9169C162.063 64.0525 164.451 63.4113 166.315 64.4891C168.18 65.5649 168.819 67.9524 167.743 69.8169C166.667 71.6793 164.28 72.3205 162.415 71.2427Z" fill="#570026"/>
<path fill-rule="evenodd" clip-rule="evenodd" d="M172.184 112.4H124.983C124.441 112.4 124 112.84 124 113.383C124 113.926 124.441 114.366 124.983 114.366H125.624V114.952C125.624 118.292 128.333 121 131.672 121H165.495C168.835 121 171.543 118.292 171.543 114.952V114.366H172.184C172.727 114.366 173.167 113.926 173.167 113.383C173.167 112.84 172.727 112.4 172.184 112.4ZM169.576 114.366V114.952C169.576 117.206 167.749 119.033 165.495 119.033H131.672C129.418 119.033 127.591 117.206 127.591 114.952V114.366H169.576Z" fill="#570026"/>
<path d="M99.925 144.05V153.32H94.48V149.075H91.27V161.975H93.535V167H82.885V161.975H85.15V149.075H81.925V153.32H76.495V144.05H99.925ZM113.234 167.405C111.414 167.405 109.749 167.115 108.239 166.535C106.729 165.955 105.424 165.135 104.324 164.075C103.234 163.005 102.389 161.745 101.789 160.295C101.189 158.835 100.889 157.225 100.889 155.465C100.889 153.725 101.189 152.135 101.789 150.695C102.389 149.255 103.234 148.01 104.324 146.96C105.424 145.9 106.729 145.085 108.239 144.515C109.749 143.935 111.419 143.645 113.249 143.645C115.069 143.645 116.734 143.935 118.244 144.515C119.754 145.085 121.054 145.9 122.144 146.96C123.244 148.01 124.094 149.255 124.694 150.695C125.294 152.135 125.594 153.725 125.594 155.465C125.594 157.225 125.294 158.835 124.694 160.295C124.094 161.745 123.244 163.005 122.144 164.075C121.054 165.135 119.754 165.955 118.244 166.535C116.734 167.115 115.064 167.405 113.234 167.405ZM113.234 161.57C114.414 161.57 115.454 161.31 116.354 160.79C117.254 160.27 117.959 159.555 118.469 158.645C118.979 157.725 119.234 156.665 119.234 155.465C119.234 154.285 118.979 153.245 118.469 152.345C117.969 151.445 117.264 150.745 116.354 150.245C115.454 149.735 114.414 149.48 113.234 149.48C112.054 149.48 111.014 149.735 110.114 150.245C109.214 150.745 108.509 151.445 107.999 152.345C107.499 153.245 107.249 154.285 107.249 155.465C107.249 156.665 107.499 157.725 107.999 158.645C108.509 159.555 109.214 160.27 110.114 160.79C111.014 161.31 112.054 161.57 113.234 161.57ZM140.031 144.05H150.381V149.075H148.206V157.685C148.206 159.675 147.801 161.395 146.991 162.845C146.181 164.285 145.021 165.395 143.511 166.175C142.011 166.945 140.221 167.33 138.141 167.33C136.081 167.33 134.301 166.945 132.801 166.175C131.311 165.395 130.161 164.285 129.351 162.845C128.541 161.395 128.136 159.675 128.136 157.685V149.075H125.961V144.05H136.851V149.075H134.451V157.49C134.451 158.35 134.611 159.085 134.931 159.695C135.251 160.295 135.711 160.755 136.311 161.075C136.911 161.385 137.626 161.54 138.456 161.54C139.296 161.54 140.011 161.38 140.601 161.06C141.201 160.74 141.656 160.28 141.966 159.68C142.276 159.08 142.431 158.35 142.431 157.49V149.075H140.031V144.05ZM161.61 149.075V144.05H164.61C167.16 144.05 169.165 144.545 170.625 145.535C172.095 146.525 172.83 147.995 172.83 149.945C172.83 151.865 172.08 153.28 170.58 154.19C169.09 155.09 166.91 155.54 164.04 155.54H157.905V153.215H163.965C164.575 153.215 165.075 153.125 165.465 152.945C165.865 152.755 166.155 152.5 166.335 152.18C166.525 151.86 166.62 151.5 166.62 151.1C166.62 150.43 166.38 149.925 165.9 149.585C165.42 149.245 164.75 149.075 163.89 149.075H161.61ZM161.31 161.975H164.385C165.325 161.975 166.07 161.785 166.62 161.405C167.18 161.025 167.46 160.485 167.46 159.785C167.46 159.465 167.395 159.175 167.265 158.915C167.145 158.645 166.96 158.415 166.71 158.225C166.46 158.025 166.135 157.875 165.735 157.775C165.345 157.675 164.88 157.625 164.34 157.625H157.905V154.85H164.34C165.84 154.85 167.17 154.96 168.33 155.18C169.49 155.39 170.465 155.725 171.255 156.185C172.045 156.645 172.645 157.25 173.055 158C173.465 158.74 173.67 159.645 173.67 160.715C173.67 162.725 172.95 164.275 171.51 165.365C170.08 166.455 168.11 167 165.6 167H161.31V161.975ZM151.5 149.075V144.05H162.39V149.075H159.885V161.975H162.39V167H151.5V161.975H153.765V149.075H151.5ZM167.085 154.505H168.525V155.825H167.085V154.505ZM187.385 167.405C185.565 167.405 183.9 167.115 182.39 166.535C180.88 165.955 179.575 165.135 178.475 164.075C177.385 163.005 176.54 161.745 175.94 160.295C175.34 158.835 175.04 157.225 175.04 155.465C175.04 153.725 175.34 152.135 175.94 150.695C176.54 149.255 177.385 148.01 178.475 146.96C179.575 145.9 180.88 145.085 182.39 144.515C183.9 143.935 185.57 143.645 187.4 143.645C189.22 143.645 190.885 143.935 192.395 144.515C193.905 145.085 195.205 145.9 196.295 146.96C197.395 148.01 198.245 149.255 198.845 150.695C199.445 152.135 199.745 153.725 199.745 155.465C199.745 157.225 199.445 158.835 198.845 160.295C198.245 161.745 197.395 163.005 196.295 164.075C195.205 165.135 193.905 165.955 192.395 166.535C190.885 167.115 189.215 167.405 187.385 167.405ZM187.385 161.57C188.565 161.57 189.605 161.31 190.505 160.79C191.405 160.27 192.11 159.555 192.62 158.645C193.13 157.725 193.385 156.665 193.385 155.465C193.385 154.285 193.13 153.245 192.62 152.345C192.12 151.445 191.415 150.745 190.505 150.245C189.605 149.735 188.565 149.48 187.385 149.48C186.205 149.48 185.165 149.735 184.265 150.245C183.365 150.745 182.66 151.445 182.15 152.345C181.65 153.245 181.4 154.285 181.4 155.465C181.4 156.665 181.65 157.725 182.15 158.645C182.66 159.555 183.365 160.27 184.265 160.79C185.165 161.31 186.205 161.57 187.385 161.57ZM216.041 167L204.041 144.05H210.641L222.641 167H216.041ZM200.396 149.075V144.05H210.626L209.096 151.715H207.641V161.975H209.861V167H200.396V161.975H202.616V149.075H200.396ZM216.626 149.075V144.05H226.091V149.075H223.871V167H219.221L217.286 158.96H218.846V149.075H216.626Z" fill="#570026"/>
<path d="M75.5 177.5H230" stroke="#570026" stroke-width="2" stroke-linecap="round"/>
<path d="M116.035 200V190.655H118.885C119.535 190.655 120.065 190.77 120.475 191C120.885 191.22 121.19 191.52 121.39 191.9C121.59 192.28 121.69 192.715 121.69 193.205C121.69 193.565 121.635 193.9 121.525 194.21C121.425 194.51 121.26 194.775 121.03 195.005C120.81 195.235 120.525 195.415 120.175 195.545C119.835 195.665 119.43 195.725 118.96 195.725H116.785V200H116.035ZM116.785 195.08H118.84C119.37 195.08 119.785 195 120.085 194.84C120.395 194.68 120.615 194.46 120.745 194.18C120.885 193.89 120.955 193.57 120.955 193.22C120.955 192.86 120.885 192.54 120.745 192.26C120.605 191.98 120.38 191.755 120.07 191.585C119.76 191.415 119.355 191.33 118.855 191.33H116.785V195.08ZM128.005 197.045H124.375L124.525 196.46H127.825L128.005 197.045ZM126.25 192.17L123.625 200H122.89L126.19 190.49H126.31L129.61 200H128.845L126.25 192.17ZM133.285 200V191.285H130.465V190.64H136.945V191.285H134.02V200H133.285ZM138.865 200V199.37H140.725V191.27H138.97V190.655H143.305V191.27H141.445V199.385H143.395V200H138.865ZM148.795 200.15C148.185 200.15 147.645 200.05 147.175 199.85C146.715 199.65 146.3 199.355 145.93 198.965L146.365 198.335L146.44 198.23L146.53 198.29C146.53 198.35 146.545 198.42 146.575 198.5C146.615 198.57 146.69 198.66 146.8 198.77C147.06 198.99 147.365 199.165 147.715 199.295C148.075 199.425 148.465 199.49 148.885 199.49C149.195 199.49 149.475 199.445 149.725 199.355C149.985 199.255 150.205 199.12 150.385 198.95C150.575 198.78 150.715 198.58 150.805 198.35C150.905 198.12 150.955 197.875 150.955 197.615C150.955 197.435 150.935 197.27 150.895 197.12C150.865 196.97 150.8 196.83 150.7 196.7C150.61 196.56 150.48 196.425 150.31 196.295C150.15 196.165 149.94 196.035 149.68 195.905C149.42 195.765 149.11 195.62 148.75 195.47C148.16 195.24 147.675 194.99 147.295 194.72C146.925 194.45 146.655 194.16 146.485 193.85C146.315 193.53 146.23 193.195 146.23 192.845C146.23 192.385 146.335 191.985 146.545 191.645C146.765 191.295 147.075 191.025 147.475 190.835C147.885 190.635 148.37 190.535 148.93 190.535C149.27 190.535 149.59 190.58 149.89 190.67C150.2 190.76 150.48 190.89 150.73 191.06C150.98 191.23 151.195 191.435 151.375 191.675L150.97 192.185L150.88 192.29L150.805 192.23C150.805 192.16 150.79 192.09 150.76 192.02C150.73 191.95 150.66 191.855 150.55 191.735C150.32 191.525 150.06 191.375 149.77 191.285C149.49 191.195 149.16 191.145 148.78 191.135C148.51 191.135 148.265 191.18 148.045 191.27C147.825 191.35 147.635 191.465 147.475 191.615C147.315 191.765 147.19 191.94 147.1 192.14C147.02 192.33 146.98 192.54 146.98 192.77C146.98 192.95 147 193.115 147.04 193.265C147.09 193.415 147.17 193.565 147.28 193.715C147.39 193.855 147.535 193.995 147.715 194.135C147.905 194.265 148.14 194.4 148.42 194.54C148.7 194.68 149.035 194.83 149.425 194.99C149.845 195.16 150.2 195.335 150.49 195.515C150.78 195.695 151.01 195.89 151.18 196.1C151.35 196.3 151.475 196.515 151.555 196.745C151.635 196.975 151.675 197.225 151.675 197.495C151.675 197.945 151.57 198.375 151.36 198.785C151.15 199.185 150.83 199.515 150.4 199.775C149.98 200.025 149.445 200.15 148.795 200.15ZM156.295 200.15C155.685 200.15 155.145 200.05 154.675 199.85C154.215 199.65 153.8 199.355 153.43 198.965L153.865 198.335L153.94 198.23L154.03 198.29C154.03 198.35 154.045 198.42 154.075 198.5C154.115 198.57 154.19 198.66 154.3 198.77C154.56 198.99 154.865 199.165 155.215 199.295C155.575 199.425 155.965 199.49 156.385 199.49C156.695 199.49 156.975 199.445 157.225 199.355C157.485 199.255 157.705 199.12 157.885 198.95C158.075 198.78 158.215 198.58 158.305 198.35C158.405 198.12 158.455 197.875 158.455 197.615C158.455 197.435 158.435 197.27 158.395 197.12C158.365 196.97 158.3 196.83 158.2 196.7C158.11 196.56 157.98 196.425 157.81 196.295C157.65 196.165 157.44 196.035 157.18 195.905C156.92 195.765 156.61 195.62 156.25 195.47C155.66 195.24 155.175 194.99 154.795 194.72C154.425 194.45 154.155 194.16 153.985 193.85C153.815 193.53 153.73 193.195 153.73 192.845C153.73 192.385 153.835 191.985 154.045 191.645C154.265 191.295 154.575 191.025 154.975 190.835C155.385 190.635 155.87 190.535 156.43 190.535C156.77 190.535 157.09 190.58 157.39 190.67C157.7 190.76 157.98 190.89 158.23 191.06C158.48 191.23 158.695 191.435 158.875 191.675L158.47 192.185L158.38 192.29L158.305 192.23C158.305 192.16 158.29 192.09 158.26 192.02C158.23 191.95 158.16 191.855 158.05 191.735C157.82 191.525 157.56 191.375 157.27 191.285C156.99 191.195 156.66 191.145 156.28 191.135C156.01 191.135 155.765 191.18 155.545 191.27C155.325 191.35 155.135 191.465 154.975 191.615C154.815 191.765 154.69 191.94 154.6 192.14C154.52 192.33 154.48 192.54 154.48 192.77C154.48 192.95 154.5 193.115 154.54 193.265C154.59 193.415 154.67 193.565 154.78 193.715C154.89 193.855 155.035 193.995 155.215 194.135C155.405 194.265 155.64 194.4 155.92 194.54C156.2 194.68 156.535 194.83 156.925 194.99C157.345 195.16 157.7 195.335 157.99 195.515C158.28 195.695 158.51 195.89 158.68 196.1C158.85 196.3 158.975 196.515 159.055 196.745C159.135 196.975 159.175 197.225 159.175 197.495C159.175 197.945 159.07 198.375 158.86 198.785C158.65 199.185 158.33 199.515 157.9 199.775C157.48 200.025 156.945 200.15 156.295 200.15ZM161.005 200V190.64H166.465V191.285H161.695V194.795H165.64V195.455H161.695V199.355H166.42V200H161.005ZM168.49 200V190.655H171.1C171.82 190.655 172.395 190.76 172.825 190.97C173.255 191.17 173.565 191.465 173.755 191.855C173.955 192.245 174.055 192.71 174.055 193.25C174.055 193.62 173.97 193.98 173.8 194.33C173.63 194.67 173.395 194.96 173.095 195.2C172.795 195.44 172.45 195.6 172.06 195.68L174.31 200H173.515L171.295 195.725H169.225V200H168.49ZM169.225 195.08H171.22C171.94 195.08 172.47 194.905 172.81 194.555C173.15 194.205 173.32 193.77 173.32 193.25C173.32 192.86 173.25 192.525 173.11 192.245C172.97 191.955 172.745 191.73 172.435 191.57C172.135 191.41 171.73 191.33 171.22 191.33H169.225V195.08ZM176.365 200V199.37H178.225V191.27H176.47V190.655H180.805V191.27H178.945V199.385H180.895V200H176.365ZM183.505 200V190.64H188.965V191.285H184.195V194.795H188.14V195.455H184.195V199.355H188.92V200H183.505Z" fill="#570026"/>
</svg>
